<?xml version="1.0" encoding="UTF-8"?> <svg xmlns="http://www.w3.org/2000/svg" xml:space="preserve" id="Layer_1" x="0" y="0" version="1.1" viewBox="0 0 300 110"> <style> .st0{fill:#1b2a6a} </style> <g id="Group_692"> <g id="Group_691" transform="translate(-148.973 -172.319)"> <g id="Group_1" transform="translate(148.973 186.864)"> <path id="Path_1" d="M22.12 62.54c.02-1.06-.51-2.05-1.39-2.62-1.07-.73-2.23-1.34-3.44-1.8-1.37-.55-2.87-1.11-4.52-1.68-1.62-.56-3.14-1.36-4.52-2.38-1.39-1.04-2.56-2.35-3.44-3.86-2.48-5.07-1.6-11.14 2.21-15.29 2.96-2.31 6.67-3.45 10.41-3.2 2.85-.03 5.68.3 8.45.98 2.06.48 4.04 1.22 5.9 2.21l-2.38 7.71c-1.26-.49-2.84-1.01-4.76-1.56-1.89-.54-3.85-.82-5.82-.82-3.17 0-4.76 1.23-4.76 3.7 0 .99.53 1.9 1.39 2.38 1.09.68 2.24 1.24 3.44 1.68 1.37.52 2.87 1.08 4.52 1.68 1.6.58 3.12 1.37 4.52 2.34 1.4.99 2.57 2.26 3.44 3.73 1 1.8 1.48 3.85 1.39 5.9.19 3.69-1.27 7.28-3.98 9.8-2.65 2.38-6.63 3.57-11.93 3.57-2.76.02-5.5-.35-8.16-1.11-2.17-.58-4.25-1.45-6.19-2.58l2.95-7.95c1.6.86 3.27 1.56 5 2.09 2.06.68 4.22 1.03 6.4 1.03 1.33.06 2.65-.25 3.81-.9 1.02-.68 1.57-1.85 1.46-3.05z" class="st0"></path> <path id="Path_2" d="m68.96 32.85 7.46 20.99 1.48 6.81h.33l1.15-6.89 5.25-20.91h9.76L81.75 74.26h-7.87L65.6 51.3l-1.07-5.17h-.41l-.98 5.25-7.87 22.88h-8.12l-13.2-41.41h11.56l5.99 20.58.98 7.3h.41l1.39-7.38 6.81-20.5h7.87z" class="st0"></path> <path id="Path_3" d="M96.21 21.29c-.02-1.54.62-3.02 1.76-4.06 1.34-1.18 3.1-1.79 4.88-1.68 1.83-.08 3.63.52 5.04 1.68 1.22.99 1.93 2.48 1.93 4.06.01 1.55-.7 3.03-1.93 3.98-1.44 1.12-3.22 1.68-5.04 1.6-1.77.1-3.51-.47-4.88-1.6-1.14-1-1.79-2.46-1.76-3.98zm1.56 11.56h10.66v41H97.77v-41z" class="st0"></path> <path id="Path_4" d="M116.15 16.45h10.66v19.68h.33c1.22-1.36 2.73-2.43 4.43-3.12 1.9-.78 3.93-1.17 5.99-1.15 4.36-.26 8.56 1.62 11.27 5.04 2.6 3.36 3.9 8.49 3.9 15.37 0 7.38-1.82 12.98-5.45 16.81-3.94 3.96-9.39 6.05-14.96 5.75-3.22.03-6.43-.26-9.59-.86-2.26-.38-4.46-1.03-6.57-1.93l-.01-55.59zm18.29 24.43c-1.73-.08-3.43.46-4.8 1.52-1.33 1.17-2.31 2.69-2.83 4.39v17.87c.89.44 1.85.75 2.83.9 1.07.17 2.15.25 3.24.25 2.6.15 5.09-1.04 6.6-3.16 1.74-3.05 2.53-6.55 2.26-10.04-.01-7.81-2.44-11.72-7.3-11.73z" class="st0"></path> <path id="Path_5" d="M191.06 70.33c-2.01 1.5-4.27 2.62-6.68 3.32-2.9.92-5.93 1.37-8.98 1.35-6.61 0-11.45-1.93-14.51-5.78-3.06-3.85-4.59-9.14-4.59-15.87 0-7.22 1.72-12.63 5.17-16.24 3.86-3.77 9.13-5.74 14.51-5.41 2.05 0 4.09.27 6.07.82 1.92.52 3.71 1.44 5.25 2.71 1.62 1.38 2.89 3.12 3.7 5.08 1 2.53 1.48 5.23 1.4 7.95-.01 1.23-.07 2.47-.21 3.7-.14 1.31-.34 2.68-.62 4.11h-24.6c-.06 2.83.89 5.59 2.67 7.79 2.12 1.94 4.97 2.89 7.83 2.62 3.6.03 7.13-1.06 10.09-3.12l3.5 6.97zm-15.25-30.1c-2.34-.19-4.63.74-6.19 2.5-1.44 1.94-2.28 4.27-2.42 6.68h15.25c.35-2.36-.13-4.76-1.35-6.81-1.24-1.63-3.24-2.53-5.29-2.37z" class="st0"></path> <path id="Path_6" d="M227.02 71.3c-1.8 1.28-3.82 2.21-5.95 2.75-2.34.63-4.75.95-7.17.94-2.85.08-5.69-.45-8.32-1.56-2.19-.97-4.1-2.48-5.54-4.39-1.49-2.04-2.54-4.37-3.08-6.85-.65-2.91-.97-5.88-.94-8.86 0-6.94 1.56-12.29 4.67-16.03 3.42-3.88 8.45-5.95 13.61-5.62 2.44-.06 4.88.19 7.26.74 1.72.45 3.38 1.08 4.96 1.89L223.98 43c-1.2-.58-2.45-1.05-3.73-1.39-1.38-.35-2.8-.51-4.22-.49-2.58-.16-5.08.92-6.72 2.91-1.76 2.77-2.56 6.04-2.3 9.31-.01 1.63.18 3.26.57 4.84.34 1.38.92 2.68 1.72 3.85.77 1.1 1.8 1.99 2.99 2.58 1.34.65 2.82.98 4.31.94 1.56.04 3.11-.2 4.59-.7 1.18-.43 2.31-.99 3.36-1.68l2.47 8.13z" class="st0"></path> <path id="Path_7" d="M228.44 53.35c0-6.94 1.69-12.29 5.08-16.03 3.7-3.87 8.92-5.93 14.27-5.62 2.92-.07 5.82.46 8.53 1.56 2.31.97 4.36 2.47 5.99 4.39 1.65 2.01 2.86 4.34 3.57 6.85.82 2.88 1.22 5.86 1.19 8.86 0 6.94-1.68 12.28-5.04 16.03-3.68 3.88-8.89 5.94-14.23 5.62-2.92.07-5.82-.46-8.53-1.56-2.32-.98-4.39-2.48-6.03-4.39-1.67-2-2.9-4.33-3.61-6.85-.83-2.88-1.23-5.86-1.19-8.86zm10.98 0c-.01 1.68.15 3.36.49 5 .28 1.41.78 2.76 1.48 4.02.61 1.1 1.5 2.02 2.58 2.67 1.16.65 2.48.98 3.81.94 2.47.16 4.84-.99 6.23-3.03 1.59-2.94 2.3-6.27 2.05-9.59.13-3.16-.51-6.3-1.88-9.14-1.25-2.33-3.76-3.69-6.39-3.49-2.42-.1-4.73 1-6.16 2.95-1.71 2.92-2.49 6.3-2.21 9.67z" class="st0"></path> </g> <g id="Group_2" transform="translate(273.511 172.319)"> <path id="Path_8" fill="#006cff" d="M169.79 27.25c-.88-.15-1.76-.35-2.62-.59-1.5-.47-3.56-1.01-5.54-1.69l-3.76-1.5c-.22-.1-.39-.28-.49-.5-.22-.54.04-1.15.57-1.37l3.68-1.47c1.98-.68 4.03-1.23 5.54-1.69.86-.24 1.74-.44 2.62-.59 2.37-.37 3.99-2.59 3.63-4.96-.37-2.37-2.59-3.99-4.96-3.63-1.07.17-2.04.73-2.72 1.57-.57.69-1.18 1.35-1.82 1.97-1.16 1.07-2.66 2.58-4.23 3.95l-3.22 2.54c-.15.12-.33.18-.52.19-.57 0-1.03-.46-1.04-1.03.18-1.26.39-2.69.6-4.13.41-2.05.96-4.11 1.31-5.64.22-.87.49-1.72.8-2.56.87-2.24-.25-4.75-2.48-5.62-2.24-.87-4.75.25-5.62 2.48-.39 1.01-.39 2.13 0 3.13.31.84.58 1.7.8 2.56.35 1.54.9 3.59 1.31 5.64.21 1.4.41 2.78.59 4.01.02.2-.03.4-.14.56-.32.48-.97.61-1.46.29-.04-.02-.09-.04-.13-.04l-3.04-2.4c-1.57-1.37-3.08-2.87-4.23-3.95-.64-.63-1.25-1.29-1.82-1.97-1.5-1.87-4.24-2.16-6.11-.66s-2.16 4.24-.66 6.11c.68.84 1.65 1.4 2.72 1.57.88.15 1.76.35 2.62.59 1.5.47 3.56 1.01 5.54 1.69l3.72 1.48c.2.08.37.22.48.41.27.51.06 1.15-.45 1.41-.03.02-.05.04-.07.07l-3.67 1.46c-1.98.68-4.03 1.23-5.54 1.69-.86.24-1.74.44-2.62.59-2.37.37-3.99 2.6-3.61 4.97.37 2.37 2.6 3.99 4.97 3.61 1.06-.17 2.02-.72 2.69-1.55.57-.69 1.18-1.35 1.82-1.97 1.16-1.07 2.66-2.58 4.23-3.95l3.28-2.59c.16-.1.35-.15.54-.13.58.06 1 .57.94 1.15v.03l-.58 3.96c-.41 2.05-.96 4.11-1.31 5.64-.22.87-.49 1.72-.8 2.56-.87 2.24.25 4.75 2.48 5.62 2.24.87 4.75-.25 5.62-2.48.39-1.01.39-2.13 0-3.13-.31-.84-.58-1.7-.8-2.56-.35-1.54-.9-3.59-1.31-5.64-.21-1.48-.43-2.95-.62-4.23 0-.11.03-.21.07-.31.25-.52.88-.74 1.4-.49h.02l3.31 2.61c1.57 1.37 3.08 2.87 4.23 3.95.64.63 1.25 1.29 1.82 1.97 1.5 1.87 4.24 2.16 6.11.66s2.16-4.24.66-6.11c-.7-.83-1.67-1.39-2.73-1.56z"></path> </g> </g> </g> </svg> 